<svg width="176" height="44" viewBox="0 0 176 44" fill="none" xmlns="http://www.w3.org/2000/svg">
<rect width="46.0794" height="44" rx="8" fill="url(#paint0_linear_7-84)"/>
<g filter="url(#filter0_di_7-84)">
<path d="M26.8317 23.4025C30.9541 23.6931 34.0146 25.2618 35.3317 29.4602C35.7604 30.8267 34.6199 32.0972 33.1878 32.0972C31.9293 32.0972 31.0758 30.9616 30.2201 30.0388C30.0191 29.8221 29.7645 29.5946 29.4411 29.3118C29.2981 29.1867 29.1445 29.0723 28.9815 28.9746C27.6036 28.149 26.6533 27.8627 25.6073 28.239C24.5377 28.6237 23.5706 29.3008 22.4485 29.4826C20.8534 29.741 19.6391 29.6559 18.0403 29.2863C17.5996 29.1844 17.1711 29.0337 16.7643 28.836C14.129 27.5553 12.9946 26.3099 11.8121 24.1359C11.5356 23.6274 11.3266 23.0832 11.2127 22.5157C10.9069 20.9909 10.9532 19.8629 11.2092 18.3721C11.3293 17.6726 11.5619 16.9945 11.908 16.3749C13.1633 14.127 14.3955 12.9674 16.8211 11.8176C17.1908 11.6423 17.5787 11.5055 17.976 11.4082C20.4639 10.7991 21.8872 10.8891 24.1351 11.5618C26.4439 12.2528 29.156 14.5446 29.9125 17.048C29.9857 17.2903 30.0114 17.5433 30.0163 17.7963L30.0677 20.4768C30.0879 21.5244 29.1015 22.2906 28.0555 22.2284C26.6999 22.1478 25.4323 20.6223 25.1467 19.2946C25.0708 18.9419 24.9719 18.5839 24.8664 18.2104C24.7716 17.8746 24.6037 17.5593 24.3463 17.3237C22.2124 15.3704 19.4119 15.6443 17.6571 17.5149C16.562 18.5007 16.338 20.4842 16.7484 22.0145C17.0052 22.9719 17.8014 23.6564 18.6979 24.0791C20.0955 24.7381 21.1789 24.8707 22.3214 24.5009C23.8126 24.0181 25.2682 23.2923 26.8317 23.4025Z" fill="#FAFAFA"/>
</g>
<path d="M59.0676 32V16.7885H63.8961V19.976C64.1486 18.882 64.664 18.0404 65.4425 17.4513C66.242 16.8411 67.1256 16.5361 68.0935 16.5361C68.5984 16.5361 69.0192 16.5781 69.3558 16.6623V21.1437C68.7878 21.0806 68.3039 21.049 67.9041 21.049C65.2321 21.049 63.8961 22.7427 63.8961 26.13V32H59.0676ZM83.3451 30.2011C81.8303 31.716 79.7895 32.4734 77.2227 32.4734C74.6559 32.4734 72.6045 31.716 71.0686 30.2011C69.5328 28.6863 68.7648 26.7507 68.7648 24.3943C68.7648 22.0379 69.5328 20.1128 71.0686 18.619C72.6045 17.1041 74.6559 16.3467 77.2227 16.3467C79.7895 16.3467 81.8303 17.1041 83.3451 18.619C84.881 20.1128 85.6489 22.0379 85.6489 24.3943C85.6489 26.7507 84.881 28.6863 83.3451 30.2011ZM77.2227 28.3707C78.3377 28.3707 79.2214 28.0025 79.8736 27.2661C80.5258 26.5298 80.8519 25.5725 80.8519 24.3943C80.8519 23.2161 80.5258 22.2588 79.8736 21.5224C79.2214 20.786 78.3377 20.4178 77.2227 20.4178C76.0865 20.4178 75.1924 20.786 74.5401 21.5224C73.909 22.2588 73.5934 23.2161 73.5934 24.3943C73.5934 25.5725 73.909 26.5298 74.5401 27.2661C75.1924 28.0025 76.0865 28.3707 77.2227 28.3707ZM93.9983 32.4734C91.5156 32.4734 89.5379 31.737 88.0652 30.2643C86.5924 28.7705 85.856 26.8138 85.856 24.3943C85.856 21.9747 86.5924 20.0286 88.0652 18.5558C89.5379 17.0831 91.5156 16.3467 93.9983 16.3467C96.2495 16.3467 98.0799 16.9043 99.4895 18.0193C100.899 19.1344 101.699 20.6493 101.888 22.5638H97.0595C96.7018 21.1332 95.6919 20.4178 94.0298 20.4178C92.9779 20.4178 92.1573 20.765 91.5682 21.4593C90.9791 22.1536 90.6846 23.1319 90.6846 24.3943C90.6846 25.6566 90.9791 26.635 91.5682 27.3293C92.1573 28.0236 92.9779 28.3707 94.0298 28.3707C95.6919 28.3707 96.7018 27.6974 97.0595 26.3509H101.888C101.699 28.2234 100.899 29.7172 99.4895 30.8323C98.0799 31.9264 96.2495 32.4734 93.9983 32.4734ZM118.318 32H112.417L107.588 25.4042V32H102.76V9.90866H107.588V23.1319L112.543 16.7885H118.224L112.164 23.984L118.318 32ZM132.344 23.6053C132.344 24.2365 132.302 24.9413 132.218 25.7197H120.983C121.025 26.7086 121.362 27.4765 121.993 28.0236C122.624 28.5706 123.476 28.8441 124.549 28.8441C126.022 28.8441 126.969 28.3707 127.389 27.4239H132.123C131.892 28.9177 131.071 30.138 129.662 31.0848C128.273 32.0105 126.569 32.4734 124.549 32.4734C121.961 32.4734 119.92 31.758 118.427 30.3274C116.933 28.8967 116.186 26.919 116.186 24.3943C116.186 21.9116 116.933 19.955 118.427 18.5243C119.92 17.0726 121.909 16.3467 124.391 16.3467C126.748 16.3467 128.662 17.02 130.135 18.3665C131.608 19.713 132.344 21.4593 132.344 23.6053ZM120.983 22.7216H127.579C127.558 21.7117 127.274 20.9333 126.727 20.3863C126.18 19.8392 125.391 19.5657 124.36 19.5657C123.329 19.5657 122.508 19.8603 121.898 20.4494C121.309 21.0174 121.004 21.7749 120.983 22.7216ZM141.136 28.2445C141.809 28.2445 142.366 28.2129 142.808 28.1498V32C141.883 32.1683 140.81 32.2525 139.589 32.2525C139.042 32.2525 138.558 32.2209 138.138 32.1578C137.717 32.0947 137.243 31.9579 136.717 31.7475C136.191 31.5161 135.76 31.211 135.423 30.8323C135.087 30.4536 134.792 29.9066 134.54 29.1912C134.308 28.4759 134.193 27.6343 134.193 26.6665V20.6072H131.794V16.7885H134.193V12.2756H139.021V16.7885H142.461V20.6072H139.021V25.6566C139.021 26.6876 139.2 27.3819 139.558 27.7395C139.915 28.0762 140.441 28.2445 141.136 28.2445ZM148.822 31.4004C148.233 32.0105 147.497 32.3156 146.613 32.3156C145.729 32.3156 144.982 32.0105 144.372 31.4004C143.783 30.7902 143.489 30.0644 143.489 29.2228C143.489 28.3602 143.783 27.6343 144.372 27.0452C144.982 26.4351 145.729 26.13 146.613 26.13C147.497 26.13 148.233 26.4351 148.822 27.0452C149.432 27.6343 149.737 28.3602 149.737 29.2228C149.737 30.0644 149.432 30.7902 148.822 31.4004ZM172.606 20.9543C172.606 23.2687 172.038 25.3726 170.902 27.2661C169.787 29.1597 168.22 30.5693 166.2 31.4951L168.378 34.3354L163.896 36.6076L160.898 32.6312H160.803C157.227 32.6312 154.365 31.5056 152.219 29.2544C150.073 26.9821 149 24.2154 149 20.9543C149 17.6932 150.073 14.9371 152.219 12.6859C154.365 10.4136 157.227 9.27748 160.803 9.27748C164.38 9.27748 167.241 10.4136 169.387 12.6859C171.533 14.9371 172.606 17.6932 172.606 20.9543ZM160.803 28.0551C162.823 28.0551 164.401 27.3819 165.537 26.0353C166.694 24.6678 167.273 22.9741 167.273 20.9543C167.273 18.9345 166.694 17.2514 165.537 15.9049C164.401 14.5373 162.823 13.8535 160.803 13.8535C158.763 13.8535 157.164 14.5373 156.006 15.9049C154.87 17.2514 154.313 18.9345 154.334 20.9543C154.313 22.9741 154.87 24.6678 156.006 26.0353C157.164 27.3819 158.763 28.0551 160.803 28.0551Z" fill="#040911"/>
<defs>
<filter id="filter0_di_7-84" x="9.36763" y="11" width="27.6878" height="24.362" filterUnits="userSpaceOnUse" color-interpolation-filters="sRGB">
<feFlood flood-opacity="0" result="BackgroundImageFix"/>
<feColorMatrix in="SourceAlpha" type="matrix" values="0 0 0 0 0 0 0 0 0 0 0 0 0 0 0 0 0 0 127 0" result="hardAlpha"/>
<feOffset dy="1.63237"/>
<feGaussianBlur stdDeviation="0.816183"/>
<feColorMatrix type="matrix" values="0 0 0 0 0 0 0 0 0 0 0 0 0 0 0 0 0 0 0.07 0"/>
<feBlend mode="normal" in2="BackgroundImageFix" result="effect1_dropShadow_7-84"/>
<feBlend mode="normal" in="SourceGraphic" in2="effect1_dropShadow_7-84" result="shape"/>
<feColorMatrix in="SourceAlpha" type="matrix" values="0 0 0 0 0 0 0 0 0 0 0 0 0 0 0 0 0 0 127 0" result="hardAlpha"/>
<feOffset dy="1.63237"/>
<feGaussianBlur stdDeviation="1.02023"/>
<feComposite in2="hardAlpha" operator="arithmetic" k2="-1" k3="1"/>
<feColorMatrix type="matrix" values="0 0 0 0 0.219608 0 0 0 0 0.533333 0 0 0 0 1 0 0 0 0.13 0"/>
<feBlend mode="normal" in2="shape" result="effect2_innerShadow_7-84"/>
</filter>
<linearGradient id="paint0_linear_7-84" x1="55.1529" y1="-66.5618" x2="23.4534" y2="49.4985" gradientUnits="userSpaceOnUse">
<stop stop-color="#5498FF"/>
<stop offset="0.515625" stop-color="#428EFF"/>
<stop offset="1" stop-color="#297FFF"/>
</linearGradient>
</defs>
</svg>
